<svg xmlns="http://www.w3.org/2000/svg" width="100%" height="100%">
   <g transform="translate(30, 400)">
      <line x1="20"
            x2="20"
            y1="0"
            y2="-350"
            stroke="black"
            stroke-width="1"/>
      <line x1="20"
            x2="820"
            y1="0"
            y2="0"
            stroke="black"
            stroke-width="1"/>
      <line x1="20"
            x2="820"
            y1="-100"
            y2="-100"
            stroke="black"
            stroke-dasharray="8 4"
            stroke-width="1"/>
      <line x1="20"
            x2="820"
            y1="-200"
            y2="-200"
            stroke="black"
            stroke-dasharray="8 4"
            stroke-width="1"/>
      <line x1="20"
            x2="820"
            y1="-300"
            y2="-300"
            stroke="black"
            stroke-dasharray="8 4"
            stroke-width="1"/>
      <text x="5" y="0" text-anchor="middle">0</text>
      <text x="5" y="-100" text-anchor="middle">5</text>
      <text x="5" y="-200" text-anchor="middle">10</text>
      <text x="5" y="-300" text-anchor="middle">15</text>
      <line x1="820"
            x2="820"
            y1="0"
            y2="-350"
            stroke="black"
            stroke-width="1"/>
      <text x="830" y="0" text-anchor="middle">0</text>
      <text x="830" y="-100" text-anchor="middle">5</text>
      <text x="830" y="-200" text-anchor="middle">10</text>
      <text x="830" y="-300" text-anchor="middle">15</text>
      <rect x="115"
            y="-280"
            fill="blue"
            stroke="black"
            stroke-width="2"
            width="50"
            height="280"/>
      <text x="140" y="20" text-anchor="middle">social</text>
      <text x="140" y="40" text-anchor="middle">14</text>
      <rect x="230"
            y="-180"
            fill="blue"
            stroke="black"
            stroke-width="2"
            width="50"
            height="180"/>
      <text x="255" y="20" text-anchor="middle">political social</text>
      <text x="255" y="40" text-anchor="middle">9</text>
      <rect x="345"
            y="-160"
            fill="blue"
            stroke="black"
            stroke-width="2"
            width="50"
            height="160"/>
      <text x="370" y="20" text-anchor="middle">regional social</text>
      <text x="370" y="40" text-anchor="middle">8</text>
      <rect x="460"
            y="-80"
            fill="blue"
            stroke="black"
            stroke-width="2"
            width="50"
            height="80"/>
      <text x="485" y="20" text-anchor="middle">political</text>
      <text x="485" y="40" text-anchor="middle">4</text>
      <rect x="575"
            y="-60"
            fill="blue"
            stroke="black"
            stroke-width="2"
            width="50"
            height="60"/>
      <text x="600" y="20" text-anchor="middle">regional</text>
      <text x="600" y="40" text-anchor="middle">3</text>
      <rect x="690"
            y="-40"
            fill="blue"
            stroke="black"
            stroke-width="2"
            width="50"
            height="40"/>
      <text x="715" y="20" text-anchor="middle">regional political</text>
      <text x="715" y="40" text-anchor="middle">2</text>
   </g>
</svg>
