<?xml version="1.0" encoding="UTF-8"?>
<svg xmlns="http://www.w3.org/2000/svg" width="100%" height="100%">
   <g transform="translate(30, 400)">
      <line x1="20"
            x2="20"
            y1="0"
            y2="-350"
            stroke="black"
            stroke-width="1"/>
      <line x1="20"
            x2="1050"
            y1="0"
            y2="0"
            stroke="black"
            stroke-width="1"/>
      <line x1="20"
            x2="1050"
            y1="-100"
            y2="-100"
            stroke="black"
            stroke-dasharray="8 4"
            stroke-width="1"/>
      <line x1="20"
            x2="1050"
            y1="-200"
            y2="-200"
            stroke="black"
            stroke-dasharray="8 4"
            stroke-width="1"/>
      <line x1="20"
            x2="1050"
            y1="-300"
            y2="-300"
            stroke="black"
            stroke-dasharray="8 4"
            stroke-width="1"/>
      <text x="5" y="0" text-anchor="middle">0</text>
      <text x="5" y="-100" text-anchor="middle">5</text>
      <text x="5" y="-200" text-anchor="middle">10</text>
      <text x="5" y="-300" text-anchor="middle">15</text>
      <line x1="1050"
            x2="1050"
            y1="0"
            y2="-350"
            stroke="black"
            stroke-width="1"/>
      <text x="1060" y="0" text-anchor="middle">0</text>
      <text x="1060" y="-100" text-anchor="middle">5</text>
      <text x="1060" y="-200" text-anchor="middle">10</text>
      <text x="1060" y="-300" text-anchor="middle">15</text>
      <rect x="150"
            y="-280"
            fill="blue"
            stroke="black"
            stroke-width="2"
            width="50"
            height="280"/>
      <text x="170" y="20" text-anchor="middle">social</text>
      <text x="170" y="40" text-anchor="middle">14</text>
      <rect x="300"
            y="-180"
            fill="blue"
            stroke="black"
            stroke-width="2"
            width="50"
            height="180"/>
      <text x="320" y="20" text-anchor="middle">political social</text>
      <text x="320" y="40" text-anchor="middle">9</text>
      <rect x="450"
            y="-160"
            fill="blue"
            stroke="black"
            stroke-width="2"
            width="50"
            height="160"/>
      <text x="470" y="20" text-anchor="middle">regional social</text>
      <text x="470" y="40" text-anchor="middle">8</text>
      <rect x="600"
            y="-80"
            fill="blue"
            stroke="black"
            stroke-width="2"
            width="50"
            height="80"/>
      <text x="620" y="20" text-anchor="middle">political</text>
      <text x="620" y="40" text-anchor="middle">4</text>
      <rect x="750"
            y="-60"
            fill="blue"
            stroke="black"
            stroke-width="2"
            width="50"
            height="60"/>
      <text x="770" y="20" text-anchor="middle">regional</text>
      <text x="770" y="40" text-anchor="middle">3</text>
      <rect x="900"
            y="-40"
            fill="blue"
            stroke="black"
            stroke-width="2"
            width="50"
            height="40"/>
      <text x="920" y="20" text-anchor="middle">regional political</text>
      <text x="920" y="40" text-anchor="middle">2</text>
   </g>
</svg>
